<svg width="53" height="53" viewBox="0 0 53 53" fill="none" xmlns="http://www.w3.org/2000/svg">
<circle cx="26.5" cy="26.5" r="26.5" fill="white"/>
<path d="M32.45 36.75C31.32 36.75 30.13 36.48 28.9 35.96C27.7 35.45 26.49 34.75 25.31 33.9C24.13 33.04 23 32.07 21.94 31.02C20.88 29.95 19.92 28.82 19.07 27.66C18.21 26.46 17.52 25.27 17.03 24.1C16.51 22.87 16.25 21.67 16.25 20.54C16.25 19.76 16.39 19.02 16.66 18.33C16.95 17.61 17.39 16.96 18 16.39C18.77 15.64 19.65 15.25 20.59 15.25C20.98 15.25 21.38 15.34 21.72 15.5C22.11 15.68 22.44 15.95 22.68 16.31L25 19.58C25.21 19.87 25.37 20.15 25.48 20.43C25.61 20.73 25.68 21.03 25.68 21.32C25.68 21.7 25.57 22.07 25.36 22.42C25.21 22.69 24.98 22.98 24.69 23.27L24.01 23.98C24.02 24.01 24.03 24.03 24.04 24.05C24.16 24.26 24.4 24.62 24.86 25.16C25.34 25.72 25.81 26.22 26.27 26.7C26.87 27.29 27.35 27.74 27.81 28.12C28.38 28.6 28.75 28.84 28.97 28.95L28.95 29L29.68 28.28C29.99 27.97 30.29 27.74 30.58 27.59C31.13 27.25 31.83 27.19 32.53 27.48C32.79 27.59 33.07 27.74 33.37 27.95L36.69 30.31C37.05 30.56 37.33 30.88 37.49 31.26C37.64 31.64 37.71 31.99 37.71 32.34C37.71 32.82 37.6 33.3 37.39 33.75C37.18 34.2 36.92 34.59 36.59 34.95C36.02 35.58 35.4 36.03 34.68 36.32C33.99 36.6 33.24 36.75 32.45 36.75ZM20.59 16.75C20.04 16.75 19.53 16.99 19.04 17.47C18.59 17.9 18.26 18.37 18.06 18.88C17.85 19.4 17.75 19.95 17.75 20.54C17.75 21.47 17.97 22.48 18.41 23.52C18.86 24.58 19.49 25.68 20.29 26.78C21.09 27.88 22 28.95 23 29.96C24 30.95 25.08 31.87 26.19 32.68C27.27 33.47 28.38 34.11 29.48 34.57C31.19 35.3 32.79 35.47 34.11 34.92C34.62 34.71 35.07 34.39 35.48 33.93C35.71 33.68 35.89 33.41 36.04 33.09C36.16 32.84 36.22 32.58 36.22 32.32C36.22 32.16 36.19 32 36.11 31.82C36.09 31.77 36.02 31.65 35.83 31.52L32.51 29.16C32.31 29.02 32.13 28.92 31.96 28.85C31.7 28.75 31.53 28.74 31.31 28.88C31.11 28.98 30.93 29.13 30.73 29.33L29.97 30.08C29.58 30.46 28.98 30.55 28.52 30.38L28.25 30.26C27.84 30.04 27.36 29.7 26.83 29.25C26.34 28.84 25.84 28.37 25.2 27.74C24.7 27.23 24.22 26.7 23.71 26.12C23.24 25.57 22.9 25.1 22.69 24.71L22.56 24.41C22.5 24.19 22.48 24.06 22.48 23.92C22.48 23.56 22.61 23.24 22.86 22.99L23.61 22.21C23.81 22.01 23.96 21.82 24.06 21.65C24.14 21.52 24.17 21.41 24.17 21.31C24.17 21.23 24.14 21.11 24.09 20.99C24.03 20.82 23.92 20.65 23.78 20.45L21.46 17.17C21.36 17.03 21.24 16.93 21.09 16.86C20.93 16.79 20.76 16.75 20.59 16.75ZM28.95 29.01L28.79 29.69L29.06 28.99C29.02 28.98 28.98 28.99 28.95 29.01Z" fill="#384065"/>
<path d="M35.5 20.75H30.5C30.09 20.75 29.75 20.41 29.75 20C29.75 19.59 30.09 19.25 30.5 19.25H35.5C35.91 19.25 36.25 19.59 36.25 20C36.25 20.41 35.91 20.75 35.5 20.75Z" fill="#384065"/>
<path d="M33 23.25C32.59 23.25 32.25 22.91 32.25 22.5V17.5C32.25 17.09 32.59 16.75 33 16.75C33.41 16.75 33.75 17.09 33.75 17.5V22.5C33.75 22.91 33.41 23.25 33 23.25Z" fill="#384065"/>
</svg>
