<svg width="27" height="26" viewBox="0 0 27 26" fill="none" xmlns="http://www.w3.org/2000/svg">
<g clip-path="url(#clip0_527_1022)">
<path d="M8.16829 25.5133C7.65567 25.1723 7.20135 24.7509 6.82279 24.2653C6.40637 23.7641 6.02054 23.2383 5.66741 22.6907C4.83873 21.4767 4.18885 20.1498 3.73772 18.7509C3.19579 17.1259 2.93335 15.5683 2.93335 14.0449C2.93335 12.3435 3.30141 10.8583 4.02129 9.61025C4.55492 8.6348 5.3395 7.81965 6.29385 7.24913C7.21872 6.67467 8.28142 6.36029 9.36997 6.33913C9.75104 6.33913 10.1613 6.39438 10.5968 6.5C10.9097 6.58857 11.2907 6.72832 11.7563 6.90219C12.3486 7.1305 12.6744 7.27025 12.7849 7.30438C13.1318 7.43113 13.4235 7.48638 13.6527 7.48638C13.8265 7.48638 14.0719 7.43113 14.3506 7.34663C14.5074 7.29138 14.8032 7.19388 15.2265 7.01269C15.6457 6.85994 15.9756 6.72913 16.238 6.63163C16.6402 6.513 17.0294 6.40332 17.3763 6.34807C17.7876 6.28322 18.205 6.26605 18.6203 6.29688C19.3398 6.34391 20.0486 6.49639 20.7238 6.74944C21.828 7.19388 22.721 7.88775 23.3856 8.87413C23.1047 9.04727 22.841 9.24698 22.5983 9.4705C22.0698 9.93897 21.6197 10.4889 21.265 11.0996C20.8013 11.9341 20.5609 12.8741 20.567 13.8288C20.5841 15.0012 20.8847 16.0339 21.477 16.9268C21.9125 17.5886 22.4784 18.1545 23.1402 18.59C23.479 18.8183 23.7707 18.9751 24.0502 19.0808C23.9194 19.487 23.7797 19.8803 23.6147 20.2703C23.2406 21.1448 22.7873 21.9833 22.2603 22.7752C21.7907 23.4569 21.4226 23.9647 21.1431 24.3027C20.7076 24.8186 20.2883 25.2127 19.865 25.4873C19.3995 25.7961 18.8494 25.961 18.2904 25.961C17.9118 25.9755 17.5333 25.9297 17.1692 25.8253C16.8563 25.7197 16.5468 25.6051 16.2421 25.4743C15.9253 25.3288 15.5987 25.2058 15.2647 25.1063C14.4389 24.8942 13.5731 24.8928 12.7467 25.1022C12.4079 25.1997 12.0821 25.3134 11.7603 25.4532C11.3078 25.6433 11.0072 25.7709 10.8333 25.8253C10.4863 25.9269 10.1264 25.9903 9.76241 26.0114C9.19935 26.0114 8.67447 25.8505 8.15447 25.5247L8.16829 25.5133ZM15.5945 5.51363C14.8584 5.88169 14.1556 6.0385 13.4577 5.98732C13.348 5.2845 13.4577 4.56544 13.7493 3.77813C13.9977 3.11112 14.3646 2.49453 14.8324 1.95813C15.3264 1.39346 15.9259 0.930622 16.5972 0.595566C17.3122 0.227504 17.9938 0.0284413 18.6455 -0.000808716C18.73 0.735316 18.6455 1.45925 18.3749 2.24169C18.1245 2.93336 17.7583 3.57738 17.2918 4.14619C16.8158 4.71163 16.2315 5.17627 15.5734 5.51282L15.5945 5.51363Z" fill="black"/>
</g>
<defs>
<clipPath id="clip0_527_1022">
<rect width="26" height="26" fill="white" transform="translate(0.5)"/>
</clipPath>
</defs>
</svg>
