<svg width="63" height="63" viewBox="0 0 63 63" fill="none" xmlns="http://www.w3.org/2000/svg">
<rect width="62.2901" height="62.2901" rx="31.145" fill="url(#paint0_linear_6_1183)"/>
<path d="M30.195 34.095L28.345 35.945C27.955 36.335 27.335 36.335 26.935 35.955C26.825 35.845 26.715 35.745 26.605 35.635C25.575 34.595 24.645 33.505 23.815 32.365C22.995 31.225 22.335 30.085 21.855 28.955C21.385 27.815 21.145 26.725 21.145 25.685C21.145 25.005 21.265 24.355 21.505 23.755C21.745 23.145 22.125 22.585 22.655 22.085C23.295 21.455 23.995 21.145 24.735 21.145C25.015 21.145 25.295 21.205 25.545 21.325C25.805 21.445 26.035 21.625 26.215 21.885L28.535 25.155C28.715 25.405 28.845 25.635 28.935 25.855C29.025 26.065 29.075 26.275 29.075 26.465C29.075 26.705 29.005 26.945 28.865 27.175C28.735 27.405 28.545 27.645 28.305 27.885L27.545 28.675C27.435 28.785 27.385 28.915 27.385 29.075C27.385 29.155 27.395 29.225 27.415 29.305C27.445 29.385 27.475 29.445 27.495 29.505C27.675 29.835 27.985 30.265 28.425 30.785C28.875 31.305 29.355 31.835 29.875 32.365C29.975 32.465 30.085 32.565 30.185 32.665C30.585 33.055 30.595 33.695 30.195 34.095Z" fill="white"/>
<path d="M41.115 37.475C41.115 37.755 41.065 38.045 40.965 38.325C40.935 38.405 40.905 38.485 40.865 38.565C40.695 38.925 40.475 39.265 40.185 39.585C39.695 40.125 39.155 40.515 38.545 40.765C38.535 40.765 38.525 40.775 38.515 40.775C37.925 41.015 37.285 41.145 36.595 41.145C35.575 41.145 34.485 40.905 33.335 40.415C32.185 39.925 31.035 39.265 29.895 38.435C29.505 38.145 29.115 37.855 28.745 37.545L32.015 34.275C32.295 34.485 32.545 34.645 32.755 34.755C32.805 34.775 32.865 34.805 32.935 34.835C33.015 34.865 33.095 34.875 33.185 34.875C33.355 34.875 33.485 34.815 33.595 34.705L34.355 33.955C34.605 33.705 34.845 33.515 35.075 33.395C35.305 33.255 35.535 33.185 35.785 33.185C35.975 33.185 36.175 33.225 36.395 33.315C36.615 33.405 36.845 33.535 37.095 33.705L40.405 36.055C40.665 36.235 40.845 36.445 40.955 36.695C41.055 36.945 41.115 37.195 41.115 37.475Z" fill="white"/>
<defs>
<linearGradient id="paint0_linear_6_1183" x1="-13.8969" y1="-13.5076" x2="104.922" y2="32.389" gradientUnits="userSpaceOnUse">
<stop stop-color="#5CBE7D"/>
<stop offset="1" stop-color="#1E884B"/>
</linearGradient>
</defs>
</svg>
