<svg width="25" height="24" viewBox="0 0 25 24" fill="none" xmlns="http://www.w3.org/2000/svg">
<path d="M18.8 5.71001C18.7075 5.61731 18.5976 5.54376 18.4766 5.49358C18.3557 5.4434 18.226 5.41757 18.095 5.41757C17.964 5.41757 17.8344 5.4434 17.7134 5.49358C17.5924 5.54376 17.4825 5.61731 17.39 5.71001L12.5 10.59L7.61001 5.70001C7.51743 5.60743 7.40752 5.53399 7.28655 5.48388C7.16559 5.43378 7.03594 5.40799 6.90501 5.40799C6.77408 5.40799 6.64443 5.43378 6.52347 5.48388C6.4025 5.53399 6.29259 5.60743 6.20001 5.70001C6.10743 5.79259 6.03399 5.9025 5.98388 6.02347C5.93378 6.14443 5.90799 6.27408 5.90799 6.40501C5.90799 6.53594 5.93378 6.66559 5.98388 6.78655C6.03399 6.90752 6.10743 7.01743 6.20001 7.11001L11.09 12L6.20001 16.89C6.10743 16.9826 6.03399 17.0925 5.98388 17.2135C5.93378 17.3344 5.90799 17.4641 5.90799 17.595C5.90799 17.7259 5.93378 17.8556 5.98388 17.9766C6.03399 18.0975 6.10743 18.2074 6.20001 18.3C6.29259 18.3926 6.4025 18.466 6.52347 18.5161C6.64443 18.5662 6.77408 18.592 6.90501 18.592C7.03594 18.592 7.16559 18.5662 7.28655 18.5161C7.40752 18.466 7.51743 18.3926 7.61001 18.3L12.5 13.41L17.39 18.3C17.4826 18.3926 17.5925 18.466 17.7135 18.5161C17.8344 18.5662 17.9641 18.592 18.095 18.592C18.2259 18.592 18.3556 18.5662 18.4766 18.5161C18.5975 18.466 18.7074 18.3926 18.8 18.3C18.8926 18.2074 18.966 18.0975 19.0161 17.9766C19.0662 17.8556 19.092 17.7259 19.092 17.595C19.092 17.4641 19.0662 17.3344 19.0161 17.2135C18.966 17.0925 18.8926 16.9826 18.8 16.89L13.91 12L18.8 7.11001C19.18 6.73001 19.18 6.09001 18.8 5.71001Z" fill="#848484"/>
</svg>
