<svg width="53" height="53" viewBox="0 0 53 53" fill="none" xmlns="http://www.w3.org/2000/svg">
<circle cx="26.5" cy="26.5" r="26.5" fill="white"/>
<path d="M27 26.75C23.83 26.75 21.25 24.17 21.25 21C21.25 17.83 23.83 15.25 27 15.25C30.17 15.25 32.75 17.83 32.75 21C32.75 24.17 30.17 26.75 27 26.75ZM27 16.75C24.66 16.75 22.75 18.66 22.75 21C22.75 23.34 24.66 25.25 27 25.25C29.34 25.25 31.25 23.34 31.25 21C31.25 18.66 29.34 16.75 27 16.75Z" fill="#384065"/>
<path d="M35.5901 36.75C35.1801 36.75 34.8401 36.41 34.8401 36C34.8401 32.55 31.3202 29.75 27.0002 29.75C22.6802 29.75 19.1602 32.55 19.1602 36C19.1602 36.41 18.8202 36.75 18.4102 36.75C18.0002 36.75 17.6602 36.41 17.6602 36C17.6602 31.73 21.8502 28.25 27.0002 28.25C32.1502 28.25 36.3401 31.73 36.3401 36C36.3401 36.41 36.0001 36.75 35.5901 36.75Z" fill="#384065"/>
</svg>
