<svg width="63" height="63" viewBox="0 0 63 63" fill="none" xmlns="http://www.w3.org/2000/svg">
<rect width="62.2901" height="62.2901" rx="31.145" fill="url(#paint0_linear_6_1206)"/>
<path d="M30.8662 37.4547C31.7953 37.4547 32.5486 38.2079 32.5486 39.1371C32.5486 40.0662 31.7953 40.8194 30.8662 40.8194C29.937 40.8194 29.1838 40.0662 29.1838 39.1371C29.1838 38.2079 29.937 37.4547 30.8662 37.4547ZM30.8662 31.8468C31.7953 31.8468 32.5486 32.6 32.5486 33.5292C32.5486 34.4583 31.7953 35.2115 30.8662 35.2115C29.937 35.2115 29.1838 34.4583 29.1838 33.5292C29.1838 32.6 29.937 31.8468 30.8662 31.8468ZM36.4696 31.8468C37.3987 31.8468 38.1519 32.6 38.1519 33.5292C38.1519 34.4583 37.3987 35.2115 36.4696 35.2115C35.5404 35.2115 34.7872 34.4583 34.7872 33.5292C34.7872 32.6 35.5404 31.8468 36.4696 31.8468ZM25.2628 31.8468C26.192 31.8468 26.9452 32.6 26.9452 33.5292C26.9452 34.4583 26.192 35.2115 25.2628 35.2115C24.3337 35.2115 23.5804 34.4583 23.5804 33.5292C23.5804 32.6 24.3337 31.8468 25.2628 31.8468ZM30.8662 26.2389C31.7953 26.2389 32.5486 26.9921 32.5486 27.9213C32.5486 28.8504 31.7953 29.6036 30.8662 29.6036C29.937 29.6036 29.1838 28.8504 29.1838 27.9213C29.1838 26.9921 29.937 26.2389 30.8662 26.2389ZM36.4696 26.2389C37.3987 26.2389 38.1519 26.9921 38.1519 27.9213C38.1519 28.8504 37.3987 29.6036 36.4696 29.6036C35.5404 29.6036 34.7872 28.8504 34.7872 27.9213C34.7872 26.9921 35.5404 26.2389 36.4696 26.2389ZM25.2628 26.2389C26.192 26.2389 26.9452 26.9921 26.9452 27.9213C26.9452 28.8504 26.192 29.6036 25.2628 29.6036C24.3337 29.6036 23.5804 28.8504 23.5804 27.9213C23.5804 26.9921 24.3337 26.2389 25.2628 26.2389ZM30.8662 20.631C31.7953 20.631 32.5486 21.3842 32.5486 22.3134C32.5486 23.2425 31.7953 23.9957 30.8662 23.9957C29.937 23.9957 29.1838 23.2425 29.1838 22.3134C29.1838 21.3842 29.937 20.631 30.8662 20.631ZM36.4696 20.631C37.3987 20.631 38.1519 21.3842 38.1519 22.3134C38.1519 23.2425 37.3987 23.9957 36.4696 23.9957C35.5404 23.9957 34.7872 23.2425 34.7872 22.3134C34.7872 21.3842 35.5404 20.631 36.4696 20.631ZM25.2628 20.631C26.192 20.631 26.9452 21.3842 26.9452 22.3134C26.9452 23.2425 26.192 23.9957 25.2628 23.9957C24.3337 23.9957 23.5804 23.2425 23.5804 22.3134C23.5804 21.3842 24.3337 20.631 25.2628 20.631Z" fill="white"/>
<defs>
<linearGradient id="paint0_linear_6_1206" x1="-13.8969" y1="-13.5076" x2="104.922" y2="32.389" gradientUnits="userSpaceOnUse">
<stop stop-color="#5CBE7D"/>
<stop offset="1" stop-color="#1E884B"/>
</linearGradient>
</defs>
</svg>
