<svg width="16" height="16" viewBox="0 0 16 16" fill="none" xmlns="http://www.w3.org/2000/svg">
<path d="M10.1199 10.827L14.1459 14.854C14.1924 14.9005 14.2476 14.9374 14.3083 14.9625C14.3691 14.9877 14.4342 15.0007 14.4999 15.0007C14.5656 15.0007 14.6307 14.9877 14.6915 14.9625C14.7522 14.9374 14.8074 14.9005 14.8539 14.854C14.9004 14.8075 14.9373 14.7523 14.9624 14.6916C14.9876 14.6309 15.0005 14.5658 15.0005 14.5C15.0005 14.4343 14.9876 14.3692 14.9624 14.3084C14.9373 14.2477 14.9004 14.1925 14.8539 14.146L1.8539 1.14602C1.80741 1.09953 1.75222 1.06266 1.69148 1.0375C1.63074 1.01234 1.56564 0.99939 1.4999 0.99939C1.43416 0.99939 1.36906 1.01234 1.30832 1.0375C1.24758 1.06266 1.19239 1.09953 1.1459 1.14602C1.09941 1.19251 1.06253 1.2477 1.03738 1.30844C1.01222 1.36918 0.999268 1.43428 0.999268 1.50002C0.999268 1.56577 1.01222 1.63087 1.03738 1.6916C1.06253 1.75234 1.09941 1.80753 1.1459 1.85402L4.3759 5.08402C3.93638 5.39557 3.54083 5.76489 3.1999 6.18202C2.7173 6.77418 2.33952 7.44451 2.0829 8.16402C2.0619 8.22502 2.0359 8.30902 2.0359 8.30902L2.0179 8.37102C2.0179 8.37102 1.9419 8.86802 2.3729 8.98202C2.501 9.01588 2.63729 8.99751 2.75185 8.93095C2.86642 8.86438 2.94987 8.75507 2.9839 8.62702L2.9849 8.62402L2.9929 8.59902L3.0279 8.49002C3.24586 7.88255 3.5654 7.3165 3.9729 6.81602C4.29393 6.42294 4.67294 6.08102 5.0969 5.80202L6.6749 7.38002C6.35646 7.57961 6.08712 7.84842 5.88691 8.16646C5.68669 8.4845 5.56075 8.84359 5.51847 9.21702C5.47618 9.59045 5.51862 9.9686 5.64265 10.3234C5.76667 10.6781 5.96908 11.0004 6.23482 11.2661C6.50056 11.5318 6.8228 11.7343 7.17756 11.8583C7.53232 11.9823 7.91047 12.0247 8.2839 11.9825C8.65733 11.9402 9.01642 11.8142 9.33446 11.614C9.6525 11.4138 9.92131 11.1445 10.1209 10.826M6.3209 4.19802L7.1749 5.05202C7.43423 5.01735 7.70923 5.00002 7.9999 5.00002C10.0439 5.00002 11.2859 5.91202 12.0279 6.81702C12.4354 7.3175 12.7549 7.88355 12.9729 8.49102C12.9896 8.53969 13.0012 8.57602 13.0079 8.60002L13.0159 8.62502V8.62802L13.0169 8.62902C13.0539 8.75382 13.1381 8.85927 13.2516 8.92296C13.3652 8.98665 13.499 9.00356 13.6248 8.97009C13.7506 8.93662 13.8584 8.85542 13.9253 8.74374C13.9921 8.63206 14.0128 8.49871 13.9829 8.37202V8.36902L13.9819 8.36502L13.9779 8.35202C13.961 8.28874 13.9409 8.22633 13.9179 8.16502C13.6613 7.44551 13.2835 6.77518 12.8009 6.18302C11.9049 5.08902 10.3959 4.00002 8.0019 4.00002C7.3839 4.00002 6.8249 4.07102 6.3209 4.19802Z" fill="#8B8B8B"/>
</svg>
