<svg width="27" height="26" viewBox="0 0 27 26" fill="none" xmlns="http://www.w3.org/2000/svg">
<path d="M6.91996 15.4656L6.09721 18.537L3.09008 18.6006C2.19139 16.9338 1.68164 15.0267 1.68164 13C1.68164 11.0403 2.15825 9.19223 3.00306 7.56496H3.00371L5.6809 8.05579L6.85366 10.7169C6.60821 11.4325 6.47442 12.2007 6.47442 13C6.47451 13.8676 6.63166 14.6988 6.91996 15.4656Z" fill="#FBBB00"/>
<path d="M25.1116 10.7922C25.2474 11.5071 25.3181 12.2454 25.3181 13C25.3181 13.8461 25.2292 14.6714 25.0597 15.4675C24.4844 18.1766 22.9811 20.5422 20.8987 22.2162L20.898 22.2155L17.526 22.0435L17.0487 19.0642C18.4305 18.2539 19.5104 16.9857 20.0793 15.4675H13.7598V10.7922H20.1715H25.1116Z" fill="#518EF8"/>
<path d="M20.8981 22.2156L20.8988 22.2163C18.8735 23.8442 16.3007 24.8182 13.5001 24.8182C8.99942 24.8182 5.08645 22.3026 3.09033 18.6007L6.92021 15.4656C7.91824 18.1292 10.4877 20.0254 13.5001 20.0254C14.7949 20.0254 16.0079 19.6753 17.0488 19.0643L20.8981 22.2156Z" fill="#28B446"/>
<path d="M21.0432 3.90258L17.2146 7.03699C16.1374 6.36363 14.864 5.97464 13.4997 5.97464C10.4192 5.97464 7.80162 7.95774 6.85358 10.7169L3.00358 7.56493H3.00293C4.96983 3.77272 8.93215 1.18182 13.4997 1.18182C16.3672 1.18182 18.9964 2.20326 21.0432 3.90258Z" fill="#F14336"/>
</svg>
