<svg width="53" height="53" viewBox="0 0 53 53" fill="none" xmlns="http://www.w3.org/2000/svg">
<circle cx="26.5" cy="26.5" r="26.5" fill="#384065"/>
<path d="M26.97 36.75C21.05 36.75 16.22 31.93 16.22 26C16.22 20.07 21.05 15.25 26.97 15.25C32.89 15.25 37.72 20.07 37.72 26C37.72 31.93 32.9 36.75 26.97 36.75ZM26.97 16.75C21.87 16.75 17.72 20.9 17.72 26C17.72 31.1 21.87 35.25 26.97 35.25C32.07 35.25 36.22 31.1 36.22 26C36.22 20.9 32.07 16.75 26.97 16.75Z" fill="white"/>
<path d="M25.01 29.95H23.71C22.79 29.95 22.25 29.42 22.25 28.53V23.47C22.25 22.58 22.8 22.05 23.71 22.05H25C25.92 22.05 26.46 22.58 26.46 23.47V28.53C26.47 29.42 25.92 29.95 25.01 29.95ZM23.75 28.45H24.97V23.55H23.76L23.75 28.45Z" fill="white"/>
<path d="M30.29 29.95H29C28.08 29.95 27.54 29.42 27.54 28.53V23.47C27.54 22.58 28.09 22.05 29 22.05H30.29C31.21 22.05 31.75 22.58 31.75 23.47V28.53C31.75 29.42 31.2 29.95 30.29 29.95ZM29.03 28.45H30.25V23.55H29.04L29.03 28.45Z" fill="white"/>
</svg>
