<svg width="24" height="25" viewBox="0 0 24 25" fill="none" xmlns="http://www.w3.org/2000/svg">
<path d="M12 23.0863C6.07 23.0863 1.25 18.2663 1.25 12.3363C1.25 6.40627 6.07 1.58627 12 1.58627C17.93 1.58627 22.75 6.40627 22.75 12.3363C22.75 18.2663 17.93 23.0863 12 23.0863ZM12 3.08627C6.9 3.08627 2.75 7.23627 2.75 12.3363C2.75 17.4363 6.9 21.5863 12 21.5863C17.1 21.5863 21.25 17.4363 21.25 12.3363C21.25 7.23627 17.1 3.08627 12 3.08627Z" fill="#848484"/>
<path d="M12 14.0863C11.59 14.0863 11.25 13.7463 11.25 13.3363V8.33627C11.25 7.92627 11.59 7.58627 12 7.58627C12.41 7.58627 12.75 7.92627 12.75 8.33627V13.3363C12.75 13.7463 12.41 14.0863 12 14.0863Z" fill="#848484"/>
<path d="M12 17.3363C11.87 17.3363 11.74 17.3063 11.62 17.2563C11.5 17.2063 11.39 17.1363 11.29 17.0463C11.2 16.9463 11.13 16.8463 11.08 16.7163C11.03 16.5963 11 16.4663 11 16.3363C11 16.2063 11.03 16.0763 11.08 15.9563C11.13 15.8363 11.2 15.7263 11.29 15.6263C11.39 15.5363 11.5 15.4663 11.62 15.4163C11.86 15.3163 12.14 15.3163 12.38 15.4163C12.5 15.4663 12.61 15.5363 12.71 15.6263C12.8 15.7263 12.87 15.8363 12.92 15.9563C12.97 16.0763 13 16.2063 13 16.3363C13 16.4663 12.97 16.5963 12.92 16.7163C12.87 16.8463 12.8 16.9463 12.71 17.0463C12.61 17.1363 12.5 17.2063 12.38 17.2563C12.26 17.3063 12.13 17.3363 12 17.3363Z" fill="#848484"/>
</svg>
