<svg width="53" height="53" viewBox="0 0 53 53" fill="none" xmlns="http://www.w3.org/2000/svg">
<circle cx="26.5" cy="26.5" r="26.5" fill="white"/>
<path d="M22.39 31.59C22.18 31.59 21.96 31.5 21.81 31.32C20.8 30.11 20.25 28.58 20.25 27V22C20.25 18.28 23.28 15.25 27 15.25C30.1 15.25 32.79 17.35 33.55 20.35C33.65 20.75 33.41 21.16 33.01 21.26C32.62 21.36 32.2 21.12 32.1 20.72C31.5 18.38 29.41 16.75 27 16.75C24.11 16.75 21.75 19.1 21.75 22V27C21.75 28.23 22.18 29.42 22.96 30.36C23.23 30.68 23.18 31.15 22.86 31.42C22.73 31.53 22.56 31.59 22.39 31.59Z" fill="#384065"/>
<path d="M27 33.75C26.19 33.75 25.4 33.61 24.66 33.33C24.27 33.19 24.07 32.75 24.22 32.37C24.36 31.98 24.8 31.78 25.18 31.93C25.76 32.15 26.38 32.26 27 32.26C29.89 32.26 32.25 29.91 32.25 27.01V23.98C32.25 23.57 32.59 23.23 33 23.23C33.41 23.23 33.75 23.57 33.75 23.98V27C33.75 30.72 30.72 33.75 27 33.75Z" fill="#384065"/>
<path d="M27 36.75C24.52 36.75 22.16 35.82 20.35 34.13C20.05 33.85 20.03 33.37 20.31 33.07C20.59 32.77 21.07 32.75 21.37 33.03C22.9 34.46 24.9 35.24 26.99 35.24C31.54 35.24 35.24 31.54 35.24 26.99V24.99C35.24 24.58 35.58 24.24 35.99 24.24C36.4 24.24 36.74 24.58 36.74 24.99V26.99C36.75 32.38 32.38 36.75 27 36.75Z" fill="#384065"/>
<path d="M17.4999 36.74C17.3099 36.74 17.1199 36.67 16.9699 36.52C16.6799 36.23 16.6799 35.75 16.9699 35.46L35.9699 16.46C36.2599 16.17 36.7399 16.17 37.0299 16.46C37.3199 16.75 37.3199 17.23 37.0299 17.52L18.0299 36.52C17.8799 36.67 17.6899 36.74 17.4999 36.74Z" fill="#384065"/>
<path d="M26.55 20.25C26.14 20.25 25.8 19.91 25.8 19.5V16.26C25.8 15.85 26.14 15.51 26.55 15.51C26.96 15.51 27.3 15.85 27.3 16.26V19.5C27.3 19.92 26.96 20.25 26.55 20.25Z" fill="#384065"/>
<path d="M23.5 22.25C23.09 22.25 22.75 21.91 22.75 21.5V17.5C22.75 17.09 23.09 16.75 23.5 16.75C23.91 16.75 24.25 17.09 24.25 17.5V21.5C24.25 21.91 23.91 22.25 23.5 22.25Z" fill="#384065"/>
</svg>
