<svg width="53" height="53" viewBox="0 0 53 53" fill="none" xmlns="http://www.w3.org/2000/svg">
<circle cx="26.5" cy="26.5" r="26.5" fill="#384065"/>
<path d="M26.97 36.75C21.05 36.75 16.22 31.93 16.22 26C16.22 20.07 21.05 15.25 26.97 15.25C32.89 15.25 37.72 20.07 37.72 26C37.72 31.93 32.9 36.75 26.97 36.75ZM26.97 16.75C21.87 16.75 17.72 20.9 17.72 26C17.72 31.1 21.87 35.25 26.97 35.25C32.07 35.25 36.22 31.1 36.22 26C36.22 20.9 32.07 16.75 26.97 16.75Z" fill="white"/>
<path d="M27 30.98C24.25 30.98 22.02 28.75 22.02 26C22.02 23.25 24.25 21.02 27 21.02C29.75 21.02 31.98 23.25 31.98 26C31.98 28.75 29.75 30.98 27 30.98ZM27 22.52C25.08 22.52 23.52 24.08 23.52 26C23.52 27.92 25.08 29.48 27 29.48C28.92 29.48 30.48 27.92 30.48 26C30.48 24.08 28.92 22.52 27 22.52Z" fill="white"/>
</svg>
