<svg width="63" height="63" viewBox="0 0 63 63" fill="none" xmlns="http://www.w3.org/2000/svg">
<rect width="62.2901" height="62.2901" rx="31.145" fill="url(#paint0_linear_22_817)"/>
<path d="M29.7309 28.3873L29.7309 25.771C29.7309 25.2195 30.1693 24.7811 30.7208 24.7669C30.8764 24.7669 31.0249 24.7599 31.1805 24.7599C32.6442 24.7669 34.0725 24.8801 35.4655 25.0993C36.8514 25.3255 38.1242 25.665 39.2627 26.1246C40.4011 26.5983 41.3416 27.1994 42.077 27.9348C42.5578 28.4156 42.9326 28.9601 43.1871 29.554C43.4488 30.1551 43.576 30.8198 43.5548 31.5481C43.5477 32.4461 43.272 33.1603 42.7487 33.6835C42.5507 33.8815 42.3103 34.0371 42.0487 34.129C41.78 34.228 41.4901 34.2634 41.1789 34.2068L37.2262 33.5351C36.9222 33.4856 36.6676 33.4148 36.4484 33.3229C36.2363 33.2381 36.0524 33.1249 35.9181 32.9906C35.7484 32.8209 35.6282 32.6017 35.5645 32.34C35.4938 32.0855 35.4584 31.7814 35.4584 31.442L35.4372 30.346C35.4372 30.1904 35.3807 30.0632 35.2675 29.95C35.211 29.8935 35.1544 29.851 35.0837 29.8086C35.0059 29.7732 34.9423 29.752 34.8857 29.7238C34.5251 29.6177 34.0018 29.5328 33.323 29.4763C32.6371 29.4268 31.9229 29.3914 31.1805 29.3843C31.039 29.3843 30.8905 29.3914 30.7491 29.3914C30.1905 29.3985 29.7309 28.953 29.7309 28.3873Z" fill="white"/>
<path d="M19.6191 33.7189C19.4211 33.5209 19.2514 33.2805 19.1242 33.0118C19.0888 32.934 19.0535 32.8562 19.0252 32.7714C18.8908 32.3966 18.806 32.0006 18.7848 31.5693C18.7494 30.841 18.8555 30.1834 19.11 29.5753C19.1171 29.5682 19.1171 29.554 19.1242 29.547C19.3717 28.9601 19.7323 28.4156 20.2202 27.9277C20.9414 27.2064 21.8819 26.6054 23.0415 26.1387C24.2012 25.672 25.4811 25.3255 26.8741 25.1063C27.3549 25.0356 27.8357 24.9649 28.3166 24.9225V29.547C27.9701 29.5965 27.6802 29.6601 27.4539 29.7308C27.4044 29.752 27.3407 29.7732 27.27 29.8015C27.1923 29.8369 27.1286 29.8864 27.065 29.95C26.9448 30.0702 26.8953 30.2046 26.8953 30.3601L26.8882 31.4279C26.8882 31.7814 26.8528 32.0855 26.7751 32.333C26.7114 32.5946 26.5983 32.8067 26.4215 32.9835C26.2872 33.1179 26.1174 33.231 25.8982 33.3229C25.679 33.4148 25.4245 33.4856 25.1275 33.5421L21.1253 34.2209C20.8141 34.2775 20.5384 34.2563 20.2838 34.1573C20.0363 34.0512 19.8171 33.9169 19.6191 33.7189Z" fill="white"/>
<defs>
<linearGradient id="paint0_linear_22_817" x1="-13.8969" y1="-13.5076" x2="104.922" y2="32.389" gradientUnits="userSpaceOnUse">
<stop stop-color="#FC0007"/>
<stop offset="1" stop-color="#B00000"/>
</linearGradient>
</defs>
</svg>
