<svg width="17" height="18" viewBox="0 0 17 18" fill="none" xmlns="http://www.w3.org/2000/svg">
<path d="M7.79166 15.1979C3.98082 15.1979 0.885406 12.1025 0.885406 8.29166C0.885406 4.48082 3.98082 1.38541 7.79166 1.38541C11.6025 1.38541 14.6979 4.48082 14.6979 8.29166C14.6979 12.1025 11.6025 15.1979 7.79166 15.1979ZM7.79166 2.44791C4.56874 2.44791 1.94791 5.06874 1.94791 8.29166C1.94791 11.5146 4.56874 14.1354 7.79166 14.1354C11.0146 14.1354 13.6354 11.5146 13.6354 8.29166C13.6354 5.06874 11.0146 2.44791 7.79166 2.44791Z" fill="#A0A0A0"/>
<path d="M14.28 16.6429C14.2233 16.6429 14.1667 16.6358 14.1171 16.6287C13.7842 16.5862 13.1821 16.3596 12.8421 15.3467C12.665 14.8154 12.7288 14.2842 13.0192 13.8804C13.3096 13.4767 13.7983 13.25 14.3579 13.25C15.0804 13.25 15.6471 13.5263 15.9021 14.015C16.1571 14.5037 16.0863 15.1271 15.6825 15.7292C15.1796 16.4871 14.6342 16.6429 14.28 16.6429ZM13.855 15.0137C13.9754 15.3821 14.1454 15.5662 14.2588 15.5804C14.3721 15.5946 14.5846 15.46 14.8042 15.1413C15.0096 14.8367 15.0238 14.6171 14.9742 14.5179C14.9246 14.4187 14.7263 14.3125 14.3579 14.3125C14.1383 14.3125 13.9754 14.3833 13.8833 14.5037C13.7983 14.6242 13.7842 14.8083 13.855 15.0137Z" fill="#A0A0A0"/>
</svg>
