<svg width="50" height="50" viewBox="0 0 50 50" fill="none" xmlns="http://www.w3.org/2000/svg">
<rect width="50" height="50" rx="25" fill="#B7DBC0"/>
<path d="M18.125 19.1562H20.692L21.9647 17.2467C21.996 17.1998 22.0384 17.1612 22.0882 17.1345C22.138 17.1079 22.1935 17.0939 22.25 17.0938H27.75C27.8065 17.0939 27.862 17.1079 27.9118 17.1345C27.9616 17.1612 28.004 17.1998 28.0353 17.2467L29.3098 19.1562H31.875C32.3308 19.1562 32.768 19.3373 33.0903 19.6597C33.4127 19.982 33.5938 20.4192 33.5938 20.875V30.5C33.5938 30.9558 33.4127 31.393 33.0903 31.7153C32.768 32.0377 32.3308 32.2188 31.875 32.2188H18.125C17.6692 32.2188 17.232 32.0377 16.9097 31.7153C16.5873 31.393 16.4062 30.9558 16.4062 30.5V20.875C16.4062 20.4192 16.5873 19.982 16.9097 19.6597C17.232 19.3373 17.6692 19.1562 18.125 19.1562ZM17.0938 30.5C17.0938 30.7735 17.2024 31.0358 17.3958 31.2292C17.5892 31.4226 17.8515 31.5312 18.125 31.5312H31.875C32.1485 31.5312 32.4108 31.4226 32.6042 31.2292C32.7976 31.0358 32.9062 30.7735 32.9062 30.5V20.875C32.9062 20.6015 32.7976 20.3392 32.6042 20.1458C32.4108 19.9524 32.1485 19.8438 31.875 19.8438H29.125C29.0684 19.8438 29.0127 19.8298 28.9627 19.8032C28.9128 19.7765 28.8702 19.7379 28.8388 19.6908L27.567 17.7812H22.4348L21.1612 19.6908C21.1298 19.7379 21.0872 19.7765 21.0373 19.8032C20.9873 19.8298 20.9316 19.8438 20.875 19.8438H18.125C17.8515 19.8438 17.5892 19.9524 17.3958 20.1458C17.2024 20.3392 17.0938 20.6015 17.0938 20.875V30.5ZM25 21.9062C25.6799 21.9062 26.3445 22.1079 26.9098 22.4856C27.4751 22.8633 27.9157 23.4002 28.1758 24.0283C28.436 24.6564 28.5041 25.3476 28.3714 26.0144C28.2388 26.6812 27.9114 27.2937 27.4307 27.7744C26.9499 28.2552 26.3374 28.5826 25.6706 28.7152C25.0038 28.8478 24.3126 28.7798 23.6845 28.5196C23.0564 28.2594 22.5195 27.8188 22.1418 27.2535C21.7641 26.6882 21.5625 26.0236 21.5625 25.3438C21.5625 24.4321 21.9247 23.5577 22.5693 22.9131C23.214 22.2684 24.0883 21.9062 25 21.9062ZM25 28.0938C25.5439 28.0938 26.0756 27.9325 26.5278 27.6303C26.9801 27.3281 27.3325 26.8986 27.5407 26.3961C27.7488 25.8936 27.8033 25.3407 27.6972 24.8073C27.5911 24.2738 27.3291 23.7838 26.9445 23.3992C26.5599 23.0146 26.0699 22.7527 25.5365 22.6466C25.0031 22.5405 24.4501 22.5949 23.9476 22.8031C23.4451 23.0112 23.0156 23.3637 22.7135 23.8159C22.4113 24.2682 22.25 24.7999 22.25 25.3438C22.25 26.0731 22.5397 26.7726 23.0555 27.2883C23.5712 27.804 24.2707 28.0938 25 28.0938Z" fill="#2E9658"/>
</svg>
