<svg width="53" height="53" viewBox="0 0 53 53" fill="none" xmlns="http://www.w3.org/2000/svg">
<circle cx="26.5" cy="26.5" r="26.5" fill="white"/>
<path d="M28.55 35.59C27.76 35.59 26.89 35.31 26.02 34.76L23.1 32.93C22.9 32.81 22.67 32.74 22.44 32.74H21C18.58 32.74 17.25 31.41 17.25 28.99V24.99C17.25 22.57 18.58 21.24 21 21.24H22.43C22.66 21.24 22.89 21.17 23.09 21.05L26.01 19.22C27.47 18.31 28.89 18.14 30.01 18.76C31.13 19.38 31.74 20.67 31.74 22.4V31.57C31.74 33.29 31.12 34.59 30.01 35.21C29.57 35.47 29.07 35.59 28.55 35.59ZM21 22.75C19.42 22.75 18.75 23.42 18.75 25V29C18.75 30.58 19.42 31.25 21 31.25H22.43C22.95 31.25 23.45 31.39 23.89 31.67L26.81 33.5C27.77 34.1 28.68 34.26 29.29 33.92C29.9 33.58 30.25 32.73 30.25 31.6V22.41C30.25 21.27 29.9 20.42 29.29 20.09C28.68 19.75 27.77 19.9 26.81 20.51L23.88 22.33C23.45 22.61 22.94 22.75 22.43 22.75H21Z" fill="#384065"/>
<path d="M34 31.75C33.84 31.75 33.69 31.7 33.55 31.6C33.22 31.35 33.15 30.88 33.4 30.55C34.97 28.46 34.97 25.54 33.4 23.45C33.15 23.12 33.22 22.65 33.55 22.4C33.88 22.15 34.35 22.22 34.6 22.55C36.56 25.17 36.56 28.83 34.6 31.45C34.45 31.65 34.23 31.75 34 31.75Z" fill="#384065"/>
<path d="M35.83 34.25C35.67 34.25 35.52 34.2 35.38 34.1C35.05 33.85 34.98 33.38 35.23 33.05C37.9 29.49 37.9 24.51 35.23 20.95C34.98 20.62 35.05 20.15 35.38 19.9C35.71 19.65 36.18 19.72 36.43 20.05C39.5 24.14 39.5 29.86 36.43 33.95C36.29 34.15 36.06 34.25 35.83 34.25Z" fill="#384065"/>
</svg>
