<svg width="24" height="25" viewBox="0 0 24 25" fill="none" xmlns="http://www.w3.org/2000/svg">
<path d="M15.0001 22.895H9.00014C7.68014 22.895 6.58015 22.7651 5.65015 22.4851C5.31015 22.3851 5.09015 22.055 5.11015 21.705C5.36015 18.715 8.39015 16.365 12.0001 16.365C15.6101 16.365 18.6301 18.705 18.8901 21.705C18.9201 22.065 18.7001 22.3851 18.3501 22.4851C17.4201 22.7651 16.3201 22.895 15.0001 22.895ZM6.72015 21.205C7.38015 21.335 8.13015 21.395 9.00014 21.395H15.0001C15.8701 21.395 16.6201 21.335 17.2801 21.205C16.7501 19.285 14.5601 17.865 12.0001 17.865C9.44015 17.865 7.25015 19.285 6.72015 21.205Z" fill="black"/>
<path d="M15 2.14503H9C4 2.14503 2 4.14503 2 9.14503V15.145C2 18.925 3.14 20.995 5.86 21.765C6.08 19.165 8.75 17.115 12 17.115C15.25 17.115 17.92 19.165 18.14 21.765C20.86 20.995 22 18.925 22 15.145V9.14503C22 4.14503 20 2.14503 15 2.14503ZM12 14.315C10.02 14.315 8.42 12.7051 8.42 10.7251C8.42 8.74505 10.02 7.14503 12 7.14503C13.98 7.14503 15.58 8.74505 15.58 10.7251C15.58 12.7051 13.98 14.315 12 14.315Z" stroke="black" stroke-width="1.5" stroke-linecap="round" stroke-linejoin="round"/>
<path d="M11.9999 15.065C9.60992 15.065 7.66992 13.1151 7.66992 10.7251C7.66992 8.33505 9.60992 6.39503 11.9999 6.39503C14.3899 6.39503 16.3299 8.33505 16.3299 10.7251C16.3299 13.1151 14.3899 15.065 11.9999 15.065ZM11.9999 7.89503C10.4399 7.89503 9.16992 9.16505 9.16992 10.7251C9.16992 12.2951 10.4399 13.565 11.9999 13.565C13.5599 13.565 14.8299 12.2951 14.8299 10.7251C14.8299 9.16505 13.5599 7.89503 11.9999 7.89503Z" fill="black"/>
</svg>
