<svg width="117" height="117" viewBox="0 0 117 117" fill="none" xmlns="http://www.w3.org/2000/svg">
<path d="M87.75 9.75H29.25C21.1575 9.75 14.625 16.2337 14.625 24.2287V77.415C14.625 85.41 21.1575 91.8938 29.25 91.8938H32.955C36.855 91.8938 40.56 93.405 43.29 96.135L51.6263 104.374C55.4288 108.127 61.62 108.127 65.4225 104.374L73.7588 96.135C76.4888 93.405 80.2425 91.8938 84.0938 91.8938H87.75C95.8425 91.8938 102.375 85.41 102.375 77.415V24.2287C102.375 16.2337 95.8425 9.75 87.75 9.75ZM58.5 28.0312C64.7887 28.0312 69.8587 33.1012 69.8587 39.39C69.8587 45.6787 64.7887 50.7487 58.5 50.7487C52.2113 50.7487 47.1413 45.63 47.1413 39.39C47.1413 33.1012 52.2113 28.0312 58.5 28.0312ZM71.565 73.4175H45.435C41.4862 73.4175 39.195 69.03 41.3887 65.7637C44.7037 60.84 51.1388 57.525 58.5 57.525C65.8612 57.525 72.2963 60.84 75.6113 65.7637C77.805 69.03 75.465 73.4175 71.565 73.4175Z" fill="url(#paint0_linear_28_522)"/>
<defs>
<linearGradient id="paint0_linear_28_522" x1="58.5" y1="9.75" x2="58.5" y2="107.189" gradientUnits="userSpaceOnUse">
<stop stop-color="#4CB171"/>
<stop offset="1" stop-color="#329A5B"/>
</linearGradient>
</defs>
</svg>
