<svg width="14" height="14" viewBox="0 0 14 14" fill="none" xmlns="http://www.w3.org/2000/svg">
<path d="M13.4633 8.94248L8.74996 1.49915C8.35329 0.92748 7.69412 0.583313 6.99995 0.583313C6.30579 0.583313 5.64662 0.921646 5.23245 1.51665L0.542455 8.93081C-0.0525455 9.78248 -0.163379 10.8033 0.250788 11.5908C0.659121 12.3783 1.51662 12.8275 2.58995 12.8275H11.41C12.4891 12.8275 13.3408 12.3783 13.7491 11.5908C14.1575 10.8033 14.0466 9.78831 13.4633 8.94248ZM6.41662 4.08331C6.41662 3.76248 6.67912 3.49998 6.99995 3.49998C7.32079 3.49998 7.58329 3.76248 7.58329 4.08331V7.58331C7.58329 7.90415 7.32079 8.16665 6.99995 8.16665C6.67912 8.16665 6.41662 7.90415 6.41662 7.58331V4.08331ZM6.99995 11.0833C6.51579 11.0833 6.12495 10.6925 6.12495 10.2083C6.12495 9.72415 6.51579 9.33331 6.99995 9.33331C7.48412 9.33331 7.87496 9.72415 7.87496 10.2083C7.87496 10.6925 7.48412 11.0833 6.99995 11.0833Z" fill="#DB3737"/>
</svg>
